<mxfile host="drawio-plugin" modified="2021-04-19T07:44:56.040Z" agent="5.0 (Windows NT 6.2; Win64; x64) AppleWebKit/537.36 (KHTML, like Gecko) Chrome/87.0.4280.141 Safari/537.36" etag="nrQNBdFxUwpO5xpzW3ow" version="13.7.9" type="embed"><diagram id="cA-wyt2-uECq1r1HTAbt" name="Page-1"><mxGraphModel dx="3880" dy="3193" grid="1" gridSize="10" guides="1" tooltips="1" connect="1" arrows="1" fold="1" page="1" pageScale="1" pageWidth="850" pageHeight="1100" math="0" shadow="0"><root><mxCell id="0"/><mxCell id="1" parent="0"/><mxCell id="1VjAP5Q4XPJIx9dip4T8-68" value="1С" style="rounded=0;whiteSpace=wrap;html=1;fillColor=#f5f5f5;strokeColor=#666666;fontColor=#333333;fontStyle=1" parent="1" vertex="1"><mxGeometry x="1750" y="50" width="80" height="1060" as="geometry"/></mxCell><mxCell id="1VjAP5Q4XPJIx9dip4T8-10" value="пользователю после регистрации &lt;br&gt;и подтерждения email" style="edgeStyle=orthogonalEdgeStyle;rounded=0;orthogonalLoop=1;jettySize=auto;html=1;" parent="1" source="1VjAP5Q4XPJIx9dip4T8-1" target="1VjAP5Q4XPJIx9dip4T8-9" edge="1"><mxGeometry relative="1" as="geometry"/></mxCell><mxCell id="1VjAP5Q4XPJIx9dip4T8-1" value="ПОЛЬЗОВАТЕЛЬ: Зарегестрировался&lt;br&gt;&lt;br&gt;ПРОФИЛЬ ТЗ: # 1" style="rounded=0;whiteSpace=wrap;html=1;fillColor=#d5e8d4;strokeColor=#82b366;" parent="1" vertex="1"><mxGeometry x="415" y="70" width="150" height="70" as="geometry"/></mxCell><mxCell id="1VjAP5Q4XPJIx9dip4T8-2" value="1С" style="rounded=0;whiteSpace=wrap;html=1;fillColor=#f5f5f5;strokeColor=#666666;fontColor=#333333;fontStyle=1" parent="1" vertex="1"><mxGeometry x="180" y="50" width="80" height="1060" as="geometry"/></mxCell><mxCell id="1VjAP5Q4XPJIx9dip4T8-54" style="edgeStyle=orthogonalEdgeStyle;rounded=0;orthogonalLoop=1;jettySize=auto;html=1;" parent="1" source="1VjAP5Q4XPJIx9dip4T8-5" target="1VjAP5Q4XPJIx9dip4T8-53" edge="1"><mxGeometry relative="1" as="geometry"/></mxCell><mxCell id="1VjAP5Q4XPJIx9dip4T8-5" value="ИМПОРТ &lt;br&gt;1С -&amp;gt; САЙТ" style="rounded=0;whiteSpace=wrap;html=1;fillColor=#f5f5f5;strokeColor=#666666;fontColor=#333333;fontStyle=1" parent="1" vertex="1"><mxGeometry x="1705" y="585" width="120" height="60" as="geometry"/></mxCell><mxCell id="1VjAP5Q4XPJIx9dip4T8-7" value="ЭКСПОРТ&lt;br&gt;1С &amp;lt;- САЙТ" style="rounded=0;whiteSpace=wrap;html=1;fillColor=#f5f5f5;strokeColor=#666666;fontColor=#333333;fontStyle=1" parent="1" vertex="1"><mxGeometry x="220" y="460" width="120" height="60" as="geometry"/></mxCell><mxCell id="1VjAP5Q4XPJIx9dip4T8-14" value="" style="edgeStyle=orthogonalEdgeStyle;rounded=0;orthogonalLoop=1;jettySize=auto;html=1;" parent="1" source="1VjAP5Q4XPJIx9dip4T8-9" target="1VjAP5Q4XPJIx9dip4T8-13" edge="1"><mxGeometry relative="1" as="geometry"/></mxCell><mxCell id="1VjAP5Q4XPJIx9dip4T8-9" value="Таблица БД&lt;br&gt;Transactions&lt;br&gt;ЗАПИСЬ: Начисление N боунсов&lt;br&gt;СТАТУС: активны, можно воспользоваться&amp;nbsp;(сразу)" style="rounded=0;whiteSpace=wrap;html=1;fillColor=#d5e8d4;strokeColor=#82b366;" parent="1" vertex="1"><mxGeometry x="382.5" y="220" width="215" height="80" as="geometry"/></mxCell><mxCell id="1VjAP5Q4XPJIx9dip4T8-25" style="edgeStyle=orthogonalEdgeStyle;rounded=0;orthogonalLoop=1;jettySize=auto;html=1;" parent="1" source="1VjAP5Q4XPJIx9dip4T8-13" target="1VjAP5Q4XPJIx9dip4T8-7" edge="1"><mxGeometry relative="1" as="geometry"><Array as="points"><mxPoint x="330" y="510"/><mxPoint x="330" y="510"/></Array></mxGeometry></mxCell><mxCell id="1VjAP5Q4XPJIx9dip4T8-13" value="Выгрузка транзакции &quot;начислено на сайте&quot; пользователю&lt;br&gt;- Дата/время&lt;br&gt;- Тип события&lt;br&gt;- Количество балов (+N)&lt;br&gt;- ID пользователя&lt;br&gt;- ID заказа на сайте" style="rounded=0;whiteSpace=wrap;html=1;fillColor=#d5e8d4;strokeColor=#82b366;" parent="1" vertex="1"><mxGeometry x="382.5" y="430" width="215" height="120" as="geometry"/></mxCell><mxCell id="1VjAP5Q4XPJIx9dip4T8-17" style="edgeStyle=orthogonalEdgeStyle;rounded=0;orthogonalLoop=1;jettySize=auto;html=1;entryX=1;entryY=0.5;entryDx=0;entryDy=0;" parent="1" source="1VjAP5Q4XPJIx9dip4T8-15" target="1VjAP5Q4XPJIx9dip4T8-1" edge="1"><mxGeometry relative="1" as="geometry"/></mxCell><mxCell id="1VjAP5Q4XPJIx9dip4T8-18" value="новому" style="edgeLabel;html=1;align=center;verticalAlign=middle;resizable=0;points=[];" parent="1VjAP5Q4XPJIx9dip4T8-17" vertex="1" connectable="0"><mxGeometry x="-0.1747" y="-1" relative="1" as="geometry"><mxPoint as="offset"/></mxGeometry></mxCell><mxCell id="1VjAP5Q4XPJIx9dip4T8-23" style="edgeStyle=orthogonalEdgeStyle;rounded=0;orthogonalLoop=1;jettySize=auto;html=1;entryX=0.5;entryY=0;entryDx=0;entryDy=0;" parent="1" source="1VjAP5Q4XPJIx9dip4T8-15" target="1VjAP5Q4XPJIx9dip4T8-21" edge="1"><mxGeometry relative="1" as="geometry"/></mxCell><mxCell id="1VjAP5Q4XPJIx9dip4T8-24" value="рефералодателю" style="edgeLabel;html=1;align=center;verticalAlign=middle;resizable=0;points=[];" parent="1VjAP5Q4XPJIx9dip4T8-23" vertex="1" connectable="0"><mxGeometry x="-0.2587" relative="1" as="geometry"><mxPoint as="offset"/></mxGeometry></mxCell><mxCell id="1VjAP5Q4XPJIx9dip4T8-15" value="ПОЛЬЗОВАТЕЛЬ:&lt;br&gt;РЕГИСТРАЦИЯ ПО РЕФЕРАЛЬНОЙ ССЫЛКЕ&lt;br&gt;&lt;br&gt;ПРОФИЛЬ ТЗ: (нет)" style="rounded=0;whiteSpace=wrap;html=1;fillColor=#fff2cc;strokeColor=#d6b656;" parent="1" vertex="1"><mxGeometry x="660" y="65" width="190" height="80" as="geometry"/></mxCell><mxCell id="1VjAP5Q4XPJIx9dip4T8-29" style="edgeStyle=orthogonalEdgeStyle;rounded=0;orthogonalLoop=1;jettySize=auto;html=1;" parent="1" source="1VjAP5Q4XPJIx9dip4T8-16" target="1VjAP5Q4XPJIx9dip4T8-28" edge="1"><mxGeometry relative="1" as="geometry"/></mxCell><mxCell id="1VjAP5Q4XPJIx9dip4T8-31" value="пользователю" style="edgeLabel;html=1;align=center;verticalAlign=middle;resizable=0;points=[];" parent="1VjAP5Q4XPJIx9dip4T8-29" vertex="1" connectable="0"><mxGeometry x="-0.2747" y="2" relative="1" as="geometry"><mxPoint as="offset"/></mxGeometry></mxCell><mxCell id="1VjAP5Q4XPJIx9dip4T8-16" value="ПОЛЬЗОВАТЕЛЬ:&lt;br&gt;ОФОРМИЛ ПОДПИСКУ&lt;br&gt;&lt;br&gt;ПРОФИЛЬ ТЗ: # 6" style="rounded=0;whiteSpace=wrap;html=1;fillColor=#d5e8d4;strokeColor=#82b366;" parent="1" vertex="1"><mxGeometry x="890" y="65" width="190" height="80" as="geometry"/></mxCell><mxCell id="1VjAP5Q4XPJIx9dip4T8-33" value="новый user подтверждает email" style="edgeStyle=orthogonalEdgeStyle;rounded=0;orthogonalLoop=1;jettySize=auto;html=1;entryX=0.5;entryY=0;entryDx=0;entryDy=0;" parent="1" source="1VjAP5Q4XPJIx9dip4T8-21" target="1VjAP5Q4XPJIx9dip4T8-32" edge="1"><mxGeometry relative="1" as="geometry"/></mxCell><mxCell id="1VjAP5Q4XPJIx9dip4T8-21" value="Таблица БД&lt;br&gt;Transactions&lt;br&gt;ЗАПИСЬ: Начисление N боунсов&lt;br&gt;СТАТУС: заморожены (скрыты)" style="rounded=0;whiteSpace=wrap;html=1;" parent="1" vertex="1"><mxGeometry x="647.5" y="220" width="215" height="80" as="geometry"/></mxCell><mxCell id="1VjAP5Q4XPJIx9dip4T8-30" style="edgeStyle=orthogonalEdgeStyle;rounded=0;orthogonalLoop=1;jettySize=auto;html=1;" parent="1" target="1VjAP5Q4XPJIx9dip4T8-13" edge="1"><mxGeometry relative="1" as="geometry"><mxPoint x="985.0000000000005" y="260" as="sourcePoint"/><Array as="points"><mxPoint x="985" y="510"/></Array></mxGeometry></mxCell><mxCell id="1VjAP5Q4XPJIx9dip4T8-28" value="Таблица БД&lt;br&gt;Transactions&lt;br&gt;ЗАПИСЬ: Начисление N боунсов&lt;br&gt;СТАТУС: активны, можно воспользоваться (сразу)" style="rounded=0;whiteSpace=wrap;html=1;fillColor=#d5e8d4;strokeColor=#82b366;" parent="1" vertex="1"><mxGeometry x="877.5" y="220" width="215" height="80" as="geometry"/></mxCell><mxCell id="1VjAP5Q4XPJIx9dip4T8-34" style="edgeStyle=orthogonalEdgeStyle;rounded=0;orthogonalLoop=1;jettySize=auto;html=1;" parent="1" target="1VjAP5Q4XPJIx9dip4T8-13" edge="1"><mxGeometry relative="1" as="geometry"><mxPoint x="755.0000000000005" y="420" as="sourcePoint"/><Array as="points"><mxPoint x="755" y="510"/></Array></mxGeometry></mxCell><mxCell id="1VjAP5Q4XPJIx9dip4T8-32" value="Таблица БД&lt;br&gt;Transactions_confirm&lt;br&gt;ЗАПИСЬ: Разморозка бонусов&lt;br&gt;(бонусы в таблице Transactions помечаются кек начисленные)" style="rounded=0;whiteSpace=wrap;html=1;" parent="1" vertex="1"><mxGeometry x="647.5" y="380" width="215" height="80" as="geometry"/></mxCell><mxCell id="1VjAP5Q4XPJIx9dip4T8-37" style="edgeStyle=orthogonalEdgeStyle;rounded=0;orthogonalLoop=1;jettySize=auto;html=1;" parent="1" source="1VjAP5Q4XPJIx9dip4T8-35" target="1VjAP5Q4XPJIx9dip4T8-36" edge="1"><mxGeometry relative="1" as="geometry"/></mxCell><mxCell id="1VjAP5Q4XPJIx9dip4T8-38" value="автору отзыва" style="edgeLabel;html=1;align=center;verticalAlign=middle;resizable=0;points=[];" parent="1VjAP5Q4XPJIx9dip4T8-37" vertex="1" connectable="0"><mxGeometry x="-0.28" y="1" relative="1" as="geometry"><mxPoint as="offset"/></mxGeometry></mxCell><mxCell id="1VjAP5Q4XPJIx9dip4T8-35" value="ПОЛЬЗОВАТЕЛЬ:&lt;br&gt;ОСТАВИЛ ОТЗЫВ&lt;br&gt;&lt;br&gt;ПРОФИЛЬ ТЗ: # 6" style="rounded=0;whiteSpace=wrap;html=1;fillColor=#d5e8d4;strokeColor=#82b366;" parent="1" vertex="1"><mxGeometry x="1122.5" y="65" width="190" height="80" as="geometry"/></mxCell><mxCell id="1VjAP5Q4XPJIx9dip4T8-39" style="edgeStyle=orthogonalEdgeStyle;rounded=0;orthogonalLoop=1;jettySize=auto;html=1;" parent="1" target="1VjAP5Q4XPJIx9dip4T8-13" edge="1"><mxGeometry relative="1" as="geometry"><mxPoint x="1217.4285714285716" y="260" as="sourcePoint"/><Array as="points"><mxPoint x="1218" y="510"/></Array></mxGeometry></mxCell><mxCell id="1VjAP5Q4XPJIx9dip4T8-36" value="Таблица БД&lt;br&gt;Transactions&lt;br&gt;ЗАПИСЬ: Начисление N боунсов&lt;br&gt;СТАТУС: активны, можно воспользоваться&amp;nbsp;(сразу)" style="rounded=0;whiteSpace=wrap;html=1;fillColor=#d5e8d4;strokeColor=#82b366;" parent="1" vertex="1"><mxGeometry x="1110" y="220" width="215" height="80" as="geometry"/></mxCell><mxCell id="1VjAP5Q4XPJIx9dip4T8-46" style="edgeStyle=orthogonalEdgeStyle;rounded=0;orthogonalLoop=1;jettySize=auto;html=1;entryX=0.445;entryY=-0.03;entryDx=0;entryDy=0;entryPerimeter=0;" parent="1" source="1VjAP5Q4XPJIx9dip4T8-40" target="1VjAP5Q4XPJIx9dip4T8-45" edge="1"><mxGeometry relative="1" as="geometry"/></mxCell><mxCell id="1VjAP5Q4XPJIx9dip4T8-47" value="пользователю" style="edgeLabel;html=1;align=center;verticalAlign=middle;resizable=0;points=[];" parent="1VjAP5Q4XPJIx9dip4T8-46" vertex="1" connectable="0"><mxGeometry x="-0.2633" y="2" relative="1" as="geometry"><mxPoint as="offset"/></mxGeometry></mxCell><mxCell id="1VjAP5Q4XPJIx9dip4T8-40" value="ПОЛЬЗОВАТЕЛЬ:&lt;br&gt;ОФОРМИЛ ЗАКАЗ&lt;br&gt;&lt;br&gt;ПРОФИЛЬ ТЗ: # 3" style="rounded=0;whiteSpace=wrap;html=1;fillColor=#d5e8d4;strokeColor=#82b366;" parent="1" vertex="1"><mxGeometry x="1340" y="65" width="190" height="80" as="geometry"/></mxCell><mxCell id="1VjAP5Q4XPJIx9dip4T8-41" value="утверждено" style="rounded=0;whiteSpace=wrap;html=1;fillColor=#d5e8d4;strokeColor=#82b366;" parent="1" vertex="1"><mxGeometry x="50" y="230" width="100" height="25" as="geometry"/></mxCell><mxCell id="1VjAP5Q4XPJIx9dip4T8-42" value="вопрос" style="rounded=0;whiteSpace=wrap;html=1;fillColor=#fff2cc;strokeColor=#d6b656;" parent="1" vertex="1"><mxGeometry x="50" y="257.5" width="100" height="25" as="geometry"/></mxCell><mxCell id="1VjAP5Q4XPJIx9dip4T8-43" value="не обсуждалось" style="rounded=0;whiteSpace=wrap;html=1;" parent="1" vertex="1"><mxGeometry x="50" y="285.5" width="100" height="25" as="geometry"/></mxCell><mxCell id="1VjAP5Q4XPJIx9dip4T8-48" style="edgeStyle=orthogonalEdgeStyle;rounded=0;orthogonalLoop=1;jettySize=auto;html=1;" parent="1" target="1VjAP5Q4XPJIx9dip4T8-13" edge="1"><mxGeometry relative="1" as="geometry"><mxPoint x="1447.4285714285716" y="260" as="sourcePoint"/><Array as="points"><mxPoint x="1448" y="510"/></Array></mxGeometry></mxCell><mxCell id="1VjAP5Q4XPJIx9dip4T8-45" value="Таблица БД&lt;br&gt;Transactions&lt;br&gt;ЗАПИСЬ: Начисление N боунсов&lt;br&gt;СТАТУС: активны, можно воспользоваться&amp;nbsp;(сразу)" style="rounded=0;whiteSpace=wrap;html=1;fillColor=#d5e8d4;strokeColor=#82b366;" parent="1" vertex="1"><mxGeometry x="1340" y="220" width="215" height="80" as="geometry"/></mxCell><mxCell id="1VjAP5Q4XPJIx9dip4T8-52" style="edgeStyle=orthogonalEdgeStyle;rounded=0;orthogonalLoop=1;jettySize=auto;html=1;entryX=0.5;entryY=1;entryDx=0;entryDy=0;" parent="1" source="1VjAP5Q4XPJIx9dip4T8-50" target="1VjAP5Q4XPJIx9dip4T8-51" edge="1"><mxGeometry relative="1" as="geometry"/></mxCell><mxCell id="1VjAP5Q4XPJIx9dip4T8-50" value="ПОЛЬЗОВАТЕЛЬ:&lt;br&gt;ОФОРМИЛ ЗАКАЗ&lt;br&gt;&lt;br&gt;ПРОФИЛЬ ТЗ: # 11" style="rounded=0;whiteSpace=wrap;html=1;fillColor=#fff2cc;strokeColor=#d6b656;" parent="1" vertex="1"><mxGeometry x="660" y="1010" width="190" height="80" as="geometry"/></mxCell><mxCell id="1VjAP5Q4XPJIx9dip4T8-51" value="Таблица БД&lt;br&gt;Transactions&lt;br&gt;ЗАПИСЬ: Списание N боунсов в пределах суммы заказа&lt;br&gt;СТАТУС: баллы списаны, но требуется подтверждение со стороны 1с" style="rounded=0;whiteSpace=wrap;html=1;fillColor=#fff2cc;strokeColor=#d6b656;" parent="1" vertex="1"><mxGeometry x="382.5" y="770" width="215" height="140" as="geometry"/></mxCell><mxCell id="1VjAP5Q4XPJIx9dip4T8-72" style="edgeStyle=orthogonalEdgeStyle;rounded=0;orthogonalLoop=1;jettySize=auto;html=1;startArrow=none;startFill=0;" parent="1" source="1VjAP5Q4XPJIx9dip4T8-53" target="1VjAP5Q4XPJIx9dip4T8-70" edge="1"><mxGeometry relative="1" as="geometry"/></mxCell><mxCell id="1VjAP5Q4XPJIx9dip4T8-53" value="Получение транзакции &quot;изменение&amp;nbsp; баланса&quot; пользователя (либо на сайте, либо вне сайта)&lt;br&gt;- Дата/время&lt;br&gt;- Тип события&lt;br&gt;- Количество балов (+-N)&lt;br&gt;- ID пользователя&lt;br&gt;- ID заказа на сайте" style="rounded=0;whiteSpace=wrap;html=1;fillColor=#d5e8d4;strokeColor=#82b366;" parent="1" vertex="1"><mxGeometry x="1450" y="555" width="215" height="120" as="geometry"/></mxCell><mxCell id="1VjAP5Q4XPJIx9dip4T8-55" value="Таблица БД&lt;br&gt;Transactions_confirm&lt;br&gt;ЗАПИСЬ: Подтверждение изменения&lt;br&gt;(бонусы в таблице Transactions подтверждены +&amp;nbsp; доступны для трат, если начисление)" style="rounded=0;whiteSpace=wrap;html=1;" parent="1" vertex="1"><mxGeometry x="642.5" y="800" width="215" height="100" as="geometry"/></mxCell><mxCell id="1VjAP5Q4XPJIx9dip4T8-64" style="edgeStyle=orthogonalEdgeStyle;rounded=0;orthogonalLoop=1;jettySize=auto;html=1;startArrow=classic;startFill=1;" parent="1" source="1VjAP5Q4XPJIx9dip4T8-51" target="1VjAP5Q4XPJIx9dip4T8-13" edge="1"><mxGeometry relative="1" as="geometry"/></mxCell><mxCell id="1VjAP5Q4XPJIx9dip4T8-66" value="САЙТ" style="rounded=0;whiteSpace=wrap;html=1;fillColor=#f5f5f5;strokeColor=#666666;fontColor=#333333;fontStyle=1" parent="1" vertex="1"><mxGeometry x="280" y="-20" width="1460" height="60" as="geometry"/></mxCell><mxCell id="1VjAP5Q4XPJIx9dip4T8-67" value="САЙТ" style="rounded=0;whiteSpace=wrap;html=1;fillColor=#f5f5f5;strokeColor=#666666;fontColor=#333333;fontStyle=1" parent="1" vertex="1"><mxGeometry x="280" y="1120" width="1460" height="60" as="geometry"/></mxCell><mxCell id="1VjAP5Q4XPJIx9dip4T8-83" value="ДА" style="edgeStyle=orthogonalEdgeStyle;rounded=0;orthogonalLoop=1;jettySize=auto;html=1;startArrow=none;startFill=0;" parent="1" source="1VjAP5Q4XPJIx9dip4T8-70" target="1VjAP5Q4XPJIx9dip4T8-78" edge="1"><mxGeometry relative="1" as="geometry"/></mxCell><mxCell id="1VjAP5Q4XPJIx9dip4T8-70" value="Есть &lt;br&gt;ID закаа &lt;br&gt;на сайте?" style="rhombus;whiteSpace=wrap;html=1;" parent="1" vertex="1"><mxGeometry x="1310" y="565" width="120" height="100" as="geometry"/></mxCell><mxCell id="1VjAP5Q4XPJIx9dip4T8-71" value="Таблица БД&lt;br&gt;Transactions&lt;br&gt;ЗАПИСЬ: +- N боунсов&amp;nbsp;&lt;br&gt;СТАТУС: баллы списаны/зачислены" style="rounded=0;whiteSpace=wrap;html=1;fillColor=#d5e8d4;strokeColor=#82b366;" parent="1" vertex="1"><mxGeometry x="1070" y="800" width="240" height="100" as="geometry"/></mxCell><mxCell id="1VjAP5Q4XPJIx9dip4T8-77" style="edgeStyle=orthogonalEdgeStyle;rounded=0;orthogonalLoop=1;jettySize=auto;html=1;startArrow=none;startFill=0;" parent="1" source="1VjAP5Q4XPJIx9dip4T8-76" target="1VjAP5Q4XPJIx9dip4T8-55" edge="1"><mxGeometry relative="1" as="geometry"/></mxCell><mxCell id="1VjAP5Q4XPJIx9dip4T8-79" value="ДА" style="edgeLabel;html=1;align=center;verticalAlign=middle;resizable=0;points=[];" parent="1VjAP5Q4XPJIx9dip4T8-77" vertex="1" connectable="0"><mxGeometry x="-0.1642" y="-5" relative="1" as="geometry"><mxPoint x="70" y="5" as="offset"/></mxGeometry></mxCell><mxCell id="1VjAP5Q4XPJIx9dip4T8-82" value="НЕТ" style="edgeStyle=orthogonalEdgeStyle;rounded=0;orthogonalLoop=1;jettySize=auto;html=1;entryX=0.5;entryY=0;entryDx=0;entryDy=0;startArrow=none;startFill=0;" parent="1" source="1VjAP5Q4XPJIx9dip4T8-76" target="1VjAP5Q4XPJIx9dip4T8-81" edge="1"><mxGeometry relative="1" as="geometry"/></mxCell><mxCell id="1VjAP5Q4XPJIx9dip4T8-76" value="Заказ исполнен/отгружен?" style="rhombus;whiteSpace=wrap;html=1;" parent="1" vertex="1"><mxGeometry x="900" y="557.5" width="130" height="115" as="geometry"/></mxCell><mxCell id="1VjAP5Q4XPJIx9dip4T8-84" value="ДА" style="edgeStyle=orthogonalEdgeStyle;rounded=0;orthogonalLoop=1;jettySize=auto;html=1;startArrow=none;startFill=0;" parent="1" source="1VjAP5Q4XPJIx9dip4T8-78" target="1VjAP5Q4XPJIx9dip4T8-76" edge="1"><mxGeometry relative="1" as="geometry"/></mxCell><mxCell id="1VjAP5Q4XPJIx9dip4T8-85" value="НЕТ" style="rounded=0;orthogonalLoop=1;jettySize=auto;html=1;startArrow=none;startFill=0;edgeStyle=orthogonalEdgeStyle;" parent="1" source="1VjAP5Q4XPJIx9dip4T8-78" target="1VjAP5Q4XPJIx9dip4T8-71" edge="1"><mxGeometry x="0.7871" relative="1" as="geometry"><mxPoint as="offset"/></mxGeometry></mxCell><mxCell id="1VjAP5Q4XPJIx9dip4T8-78" value="Заказ оплачивался бонусами?" style="rhombus;whiteSpace=wrap;html=1;" parent="1" vertex="1"><mxGeometry x="1150" y="557.5" width="100" height="115" as="geometry"/></mxCell><mxCell id="1VjAP5Q4XPJIx9dip4T8-81" value="Таблица БД&lt;br&gt;Transactions_confirm&lt;br&gt;ЗАПИСЬ: Отмена изменения&lt;br&gt;(операция в таблице Transactions удаляется)" style="rounded=0;whiteSpace=wrap;html=1;" parent="1" vertex="1"><mxGeometry x="857.5" y="800" width="215" height="100" as="geometry"/></mxCell></root></mxGraphModel></diagram></mxfile>